# Blender v2.82 (sub 6) OBJ File: ''
# www.blender.org
mtllib collision_vhacd.mtl
o textured_reoriented.001_hull_1
v -0.000462 -0.002100 -0.002337
v -0.005135 0.010739 0.043512
v -0.004841 0.011326 0.043216
v -0.022076 0.018044 0.013140
v 0.005670 0.026223 0.012261
v 0.004795 -0.023429 0.015187
v -0.020907 -0.008532 0.018397
v 0.016188 0.007528 0.027447
v -0.002216 -0.011452 0.036501
v 0.015019 0.004026 0.006712
v -0.019447 0.001693 0.037089
v -0.008348 0.027392 0.027447
v -0.012146 0.013659 -0.001170
v -0.017109 -0.006485 0.004962
v 0.010927 0.019213 0.030364
v 0.011221 0.000524 0.035625
v 0.010347 0.018923 0.005253
v -0.008054 0.027683 0.009635
v -0.024414 0.013955 0.025404
v 0.003626 -0.021678 0.007004
v -0.011267 -0.014960 0.028322
v -0.023535 0.007528 0.009926
v 0.008298 -0.000058 -0.000883
v 0.014435 -0.005612 0.011390
v 0.011806 -0.005898 0.031536
v -0.017403 0.015415 0.035042
v 0.015604 0.015706 0.014891
v -0.000172 0.016584 -0.000591
v -0.003385 -0.021091 0.011682
v -0.014190 0.027392 0.021018
v 0.005380 0.015124 0.038839
v -0.003091 0.030021 0.019860
vt 0.950814 0.509390
vt 0.950814 0.649611
vt 1.000000 0.484133
vt 0.224079 0.847085
vt 0.639252 1.000000
vt 0.470009 0.859910
vt 0.693882 0.025453
vt 0.399046 0.000000
vt 0.317007 0.159196
vt 0.448138 0.827979
vt 0.775921 0.337565
vt 0.956258 0.261118
vt 0.928943 0.318393
vt 0.792367 0.165543
vt 0.278709 0.452224
vt 0.699420 0.605051
vt 0.032760 0.203734
vt 0.000000 0.382211
vt 0.158447 0.668695
vt 0.579177 0.267465
vt 0.513658 0.197365
vt 0.437250 0.031713
vt 0.333340 0.299396
vt 0.579177 0.649611
vt 0.327989 0.738795
vt 0.650234 0.993544
vt 0.726735 0.815263
vt 0.732180 0.375755
vt 0.797792 0.713233
vt 0.748606 0.038082
vt 0.043742 0.305765
vt 0.721291 0.898079
vn -0.2077 0.9598 0.1887
vn -0.2124 -0.3197 0.9234
vn -0.3511 -0.1924 -0.9164
vn 0.2867 -0.2541 0.9237
vn -0.5571 0.6027 -0.5713
vn 0.2013 0.7424 -0.6390
vn -0.9596 -0.2086 0.1890
vn -0.2525 -0.4591 -0.8517
vn -0.0816 -0.8801 0.4677
vn -0.7461 -0.5578 0.3634
vn -0.4146 -0.5750 0.7054
vn -0.7433 0.2877 -0.6039
vn -0.9026 -0.3069 -0.3019
vn -0.6817 -0.0541 -0.7296
vn -0.9763 0.1746 -0.1279
vn -0.9876 -0.1568 0.0090
vn 0.6987 0.1506 -0.6993
vn 0.2366 -0.3777 -0.8952
vn 0.7580 -0.3618 -0.5427
vn 0.9958 -0.0810 -0.0425
vn 0.8357 -0.5004 -0.2265
vn 0.7886 -0.3065 -0.5330
vn 0.4684 -0.6955 0.5449
vn 0.9005 -0.1723 0.3994
vn 0.4511 -0.4497 0.7709
vn 0.9540 -0.2746 0.1206
vn 0.8838 -0.4550 0.1089
vn -0.3223 0.5500 0.7705
vn -0.5038 0.2004 0.8403
vn -0.2557 0.6482 0.7173
vn -0.8062 0.2030 0.5557
vn 0.9985 -0.0120 -0.0543
vn 0.9118 0.3622 0.1935
vn 0.7181 0.6933 0.0599
vn 0.8839 0.2378 -0.4028
vn 0.7371 0.6499 -0.1851
vn 0.0255 0.0926 -0.9954
vn -0.1160 0.6272 -0.7702
vn 0.1962 0.7361 -0.6478
vn 0.1426 0.0899 -0.9857
vn 0.4316 0.2350 -0.8709
vn -0.6283 -0.7228 -0.2877
vn -0.1993 -0.9637 -0.1777
vn -0.4438 -0.6836 -0.5794
vn -0.3405 -0.9231 0.1788
vn -0.5750 -0.8177 0.0289
vn -0.5902 0.7499 -0.2990
vn -0.7858 0.6160 0.0556
vn -0.5270 0.7021 0.4789
vn -0.6674 0.6349 0.3893
vn 0.2686 0.3231 0.9075
vn 0.0416 0.7045 0.7085
vn 0.7736 0.1981 0.6019
vn 0.2543 0.7954 0.5502
vn 0.4173 -0.0330 0.9082
vn 0.7694 0.1724 0.6150
vn 0.5155 0.8388 0.1751
vn 0.2796 0.8306 0.4815
vn 0.1562 0.9437 -0.2916
vn -0.2395 0.9653 -0.1044
usemtl None
s off
f 30/1/1 12/2/1 32/3/1
f 9/4/2 2/5/2 11/6/2
f 13/7/3 1/8/3 14/9/3
f 2/5/4 9/4/4 16/10/4
f 13/7/5 4/11/5 18/12/5
f 5/13/6 17/14/6 18/12/6
f 7/15/7 11/6/7 19/16/7
f 14/9/8 1/8/8 20/17/8
f 6/18/9 9/4/9 21/19/9
f 11/6/10 7/15/10 21/19/10
f 9/4/11 11/6/11 21/19/11
f 4/11/12 13/7/12 22/20/12
f 14/9/13 7/15/13 22/20/13
f 13/7/14 14/9/14 22/20/14
f 19/16/15 4/11/15 22/20/15
f 7/15/16 19/16/16 22/20/16
f 17/14/17 10/21/17 23/22/17
f 20/17/18 1/8/18 23/22/18
f 20/17/19 23/22/19 24/23/19
f 10/21/20 8/24/20 24/23/20
f 6/18/21 20/17/21 24/23/21
f 23/22/22 10/21/22 24/23/22
f 9/4/23 6/18/23 25/25/23
f 8/24/24 16/10/24 25/25/24
f 16/10/25 9/4/25 25/25/25
f 24/23/26 8/24/26 25/25/26
f 6/18/27 24/23/27 25/25/27
f 2/5/28 3/26/28 26/27/28
f 11/6/29 2/5/29 26/27/29
f 3/26/30 12/2/30 26/27/30
f 19/16/31 11/6/31 26/27/31
f 8/24/32 10/21/32 27/28/32
f 15/29/33 8/24/33 27/28/33
f 5/13/34 15/29/34 27/28/34
f 10/21/35 17/14/35 27/28/35
f 17/14/36 5/13/36 27/28/36
f 1/8/37 13/7/37 28/30/37
f 13/7/38 18/12/38 28/30/38
f 18/12/39 17/14/39 28/30/39
f 23/22/40 1/8/40 28/30/40
f 17/14/41 23/22/41 28/30/41
f 7/15/42 14/9/42 29/31/42
f 20/17/43 6/18/43 29/31/43
f 14/9/44 20/17/44 29/31/44
f 6/18/45 21/19/45 29/31/45
f 21/19/46 7/15/46 29/31/46
f 18/12/47 4/11/47 30/1/47
f 4/11/48 19/16/48 30/1/48
f 26/27/49 12/2/49 30/1/49
f 19/16/50 26/27/50 30/1/50
f 3/26/51 2/5/51 31/32/51
f 12/2/52 3/26/52 31/32/52
f 8/24/53 15/29/53 31/32/53
f 15/29/54 12/2/54 31/32/54
f 2/5/55 16/10/55 31/32/55
f 16/10/56 8/24/56 31/32/56
f 15/29/57 5/13/57 32/3/57
f 12/2/58 15/29/58 32/3/58
f 5/13/59 18/12/59 32/3/59
f 18/12/60 30/1/60 32/3/60
