# Blender v2.82 (sub 6) OBJ File: ''
# www.blender.org
mtllib collision_vhacd.mtl
o textured_simple_reoriented.007_hull_1
v -0.036904 -0.010956 -0.011686
v -0.036480 -0.011426 0.073355
v 0.034467 0.015737 -0.011141
v 0.034835 0.014194 0.073831
v 0.016888 0.036407 0.074422
v -0.018409 -0.031759 0.074128
v 0.016481 0.036177 -0.011128
v -0.017825 -0.031035 -0.012968
vt 0.972021 0.977885
vt 0.978537 0.257313
vt 0.031127 0.258678
vt 0.982029 0.748468
vt 0.050088 0.968730
vt 0.046716 0.745120
vt 0.029772 0.003260
vt 0.972571 0.018675
vn 0.6534 -0.7570 -0.0019
vn 0.7507 0.6606 -0.0054
vn -0.7252 -0.6884 -0.0106
vn -0.7475 -0.6643 0.0001
vn -0.9515 -0.3077 0.0002
vn -0.7950 0.6065 0.0102
vn 0.5871 -0.4135 -0.6959
vn 0.7779 0.6283 0.0080
vn 0.9615 0.2748 0.0008
vn 0.0192 0.0175 -0.9997
vn 0.6155 -0.6753 -0.4063
vn -0.0249 0.0401 -0.9989
vn 0.0056 -0.0072 1.0000
vn -0.0188 0.0054 0.9998
vn 0.0168 -0.0130 0.9998
vn -0.0301 0.0113 0.9995
vn -0.6619 0.7496 0.0074
vn -0.6674 0.7447 0.0012
usemtl None.010
s 1
f 4/1/1 6/2/1 8/3/1
f 5/4/2 3/5/2 7/6/2
f 8/3/3 6/2/3 1/7/3
f 6/2/4 2/8/5 1/7/6
f 3/5/7 5/4/8 4/1/9
f 7/6/10 3/5/7 8/3/11
f 1/7/12 7/6/12 8/3/12
f 5/4/13 6/2/14 4/1/15
f 6/2/14 5/4/13 2/8/16
f 4/1/9 8/3/11 3/5/7
f 7/6/17 1/7/6 2/8/5
f 5/4/18 7/6/18 2/8/18
