# Blender v2.82 (sub 6) OBJ File: ''
# www.blender.org
mtllib collision_vhacd.mtl
o textured_reoriented.004_hull_1
v 0.019553 -0.118414 0.003339
v 0.021572 -0.117969 0.019738
v 0.024791 -0.056204 0.019248
v 0.010382 -0.056307 0.001085
v 0.001407 -0.056182 0.020730
v -0.009341 -0.103524 0.012681
v -0.007417 -0.116932 0.001474
v -0.007910 -0.118432 0.020820
v 0.025904 -0.056631 0.007353
v -0.001624 -0.056624 0.007730
v 0.008160 -0.098063 0.024397
vt 1.000000 0.937010
vt 1.000000 0.550200
vt 1.000000 0.333363
vt 0.002948 0.043549
vt 0.223353 0.007333
vt 0.029092 0.060224
vt 0.992876 0.975071
vt 0.006814 0.794419
vt 0.274265 0.477848
vt 0.019841 0.832558
vt 0.994892 0.223093
vn 0.0467 0.8473 0.5290
vn 0.1922 0.8465 -0.4965
vn 0.0273 0.8041 0.5939
vn -0.9929 -0.1140 -0.0341
vn 0.2514 0.7730 -0.5825
vn 0.3748 0.0217 -0.9269
vn 0.0675 -0.0262 -0.9974
vn 0.0630 0.0971 0.9933
vn 0.0391 -0.2027 0.9785
vn 0.3162 -0.0090 0.9486
vn -0.2667 0.0413 0.9629
vn -0.0400 0.9989 -0.0246
vn -0.9432 0.1226 -0.3087
vn -0.4825 0.1361 -0.8653
vn -0.0262 -0.9988 -0.0422
vn -0.0493 -0.9957 -0.0785
vn -0.0072 -0.9999 -0.0124
vn -0.9592 0.1808 0.2175
vn -0.9031 0.1358 0.4075
vn 0.9942 -0.0511 0.0948
vn 0.9884 -0.0939 -0.1191
vn 0.0166 -0.9995 0.0250
usemtl None.009
s 1
f 3/1/1 4/2/2 5/3/3
f 8/4/4 6/5/4 7/6/4
f 4/2/2 3/1/1 9/7/5
f 9/7/5 1/8/6 4/2/2
f 1/8/7 7/6/7 4/2/7
f 11/9/8 3/1/1 5/3/3
f 11/9/9 8/4/9 2/10/9
f 3/1/10 11/9/10 2/10/10
f 11/9/11 5/3/11 8/4/11
f 5/3/3 4/2/2 10/11/12
f 7/6/13 6/5/13 10/11/13
f 4/2/14 7/6/14 10/11/14
f 8/4/15 7/6/16 1/8/17
f 5/3/18 10/11/18 6/5/18
f 8/4/19 5/3/19 6/5/19
f 9/7/20 3/1/20 2/10/20
f 9/7/21 2/10/21 1/8/21
f 8/4/15 1/8/17 2/10/22
o textured_reoriented.004_hull_2
v 0.038468 0.025957 0.018729
v 0.027139 -0.055806 0.009081
v 0.039220 0.031840 0.006028
v 0.014758 0.103308 0.004370
v 0.028173 0.103302 0.025636
v 0.027376 0.103301 -0.001000
v 0.044303 0.103114 0.003774
v 0.013994 0.103301 0.017533
v 0.006051 0.017323 0.021123
v 0.046430 0.098661 0.013414
v 0.042310 0.103301 0.022680
v 0.024752 0.015388 -0.001648
v -0.001455 -0.056299 0.008269
v -0.000757 -0.056303 0.017487
v 0.004212 0.025540 0.008269
v 0.029996 0.044384 0.026016
v 0.023256 -0.056314 0.020108
v 0.011421 -0.056299 0.022167
v 0.009427 0.037341 0.001014
v 0.008362 -0.056318 0.001089
vt 0.523067 0.830726
vt 0.002561 0.571885
vt 0.557783 0.847641
vt 1.000000 0.352222
vt 0.999962 0.619700
vt 1.000000 0.602088
vt 0.998066 0.946449
vt 1.000000 0.322627
vt 0.494914 0.134717
vt 0.970930 1.000000
vt 1.000000 0.913961
vt 0.495682 0.497348
vt 0.000094 0.000000
vt 0.000094 0.027856
vt 0.512821 0.118346
vt 0.627043 0.677585
vt 0.000094 0.268894
vt 0.000000 0.516049
vt 0.585414 0.245956
vt 0.000062 0.206335
vn 0.9906 -0.1367 -0.0046
vn -0.2349 0.7999 -0.5523
vn 0.1096 0.8439 0.5253
vn -0.1732 0.8913 -0.4191
vn 0.0071 1.0000 -0.0033
vn -0.0004 1.0000 0.0005
vn -0.4945 0.0818 0.8653
vn 0.8200 0.5666 0.0809
vn 0.1225 0.8178 0.5624
vn 0.5570 -0.1055 -0.8238
vn -0.9948 0.0689 0.0753
vn -0.9897 0.1313 -0.0574
vn -0.2004 0.0001 0.9797
vn 0.1709 -0.0691 0.9829
vn -0.1995 -0.0007 0.9799
vn -0.1545 0.0119 -0.9879
vn -0.1695 0.0011 -0.9855
vn -0.0014 -1.0000 0.0004
vn -0.3328 -0.8273 -0.4527
vn -0.3471 -0.7985 -0.4918
vn 0.0191 -0.9997 -0.0135
vn 0.0407 -0.9987 -0.0317
vn 0.3915 -0.1243 -0.9118
vn -0.9781 0.0810 0.1917
vn -0.9744 0.0985 0.2023
vn 0.2714 -0.0010 -0.9625
vn 0.5237 -0.0642 -0.8495
vn -0.3904 0.0782 -0.9173
vn -0.0008 -1.0000 0.0028
vn -0.3587 -0.0129 0.9334
vn 0.5368 -0.0852 0.8394
vn 0.5587 -0.0700 0.8264
vn 0.8989 -0.0668 0.4331
vn 0.9324 -0.1670 0.3206
vn -0.5903 0.0061 -0.8071
vn -0.8537 0.0591 -0.5174
vn -0.8751 0.0949 -0.4746
vn 0.2047 0.0127 0.9788
vn 0.9656 -0.0767 -0.2485
vn 0.9941 -0.1082 0.0088
usemtl None.009
s 1
f 12/12/23 13/13/23 14/14/23
f 15/15/24 16/16/25 17/17/26
f 17/17/26 16/16/25 18/18/27
f 16/16/25 15/15/24 19/19/28
f 20/20/29 16/16/29 19/19/29
f 21/21/30 18/18/30 22/22/30
f 18/18/27 16/16/25 22/22/31
f 13/13/32 23/23/32 14/14/32
f 24/24/33 25/25/33 26/26/33
f 19/19/34 15/15/34 26/26/34
f 16/16/35 20/20/35 27/27/35
f 29/28/36 28/29/36 27/27/36
f 20/20/37 29/28/37 27/27/37
f 30/30/38 17/17/38 23/23/38
f 31/31/39 30/30/39 23/23/39
f 25/25/40 24/24/41 31/31/42
f 28/29/43 25/25/40 31/31/42
f 13/13/44 28/29/43 31/31/42
f 23/23/45 13/13/45 31/31/45
f 26/26/46 25/25/46 20/20/46
f 19/19/47 26/26/47 20/20/47
f 23/23/48 17/17/48 18/18/48
f 14/14/49 23/23/49 18/18/49
f 17/17/26 30/30/50 15/15/24
f 28/29/43 29/28/51 25/25/40
f 29/28/52 20/20/52 25/25/52
f 27/27/53 28/29/53 12/12/53
f 22/22/54 27/27/54 12/12/54
f 21/21/55 22/22/55 12/12/55
f 12/12/56 28/29/56 13/13/56
f 31/31/42 24/24/41 30/30/57
f 24/24/58 26/26/58 30/30/58
f 26/26/59 15/15/59 30/30/59
f 27/27/60 22/22/31 16/16/25
f 18/18/61 21/21/61 14/14/61
f 21/21/62 12/12/62 14/14/62
o textured_reoriented.004_hull_3
v 0.051035 0.156134 0.003267
v 0.014301 0.103118 0.004559
v 0.044488 0.103370 0.021512
v 0.018629 0.103301 0.022679
v 0.030081 0.103301 -0.001300
v 0.045180 0.103539 0.004586
v 0.031896 0.103397 0.025467
v 0.051488 0.150715 0.021131
v 0.050030 0.157875 0.018046
v 0.016721 0.159502 0.009659
v 0.031499 0.159413 -0.000482
v 0.019704 0.155695 0.001109
v 0.027650 0.158881 0.025810
v 0.045142 0.155572 0.026838
v 0.018820 0.157029 0.022190
v 0.013994 0.105371 0.017017
v 0.036024 0.155456 -0.003517
vt 0.000000 0.051125
vt 0.004985 0.782086
vt 0.000000 0.133333
vt 0.000039 0.429036
vt 0.004836 0.795889
vt 0.003377 0.477222
vt 0.840055 0.965811
vt 0.919923 0.956785
vt 0.963745 0.946620
vt 0.986339 0.094620
vt 0.990905 0.466667
vt 0.926893 0.177592
vt 0.945961 0.150734
vt 0.970920 0.375085
vt 0.919674 0.820359
vt 0.036555 0.013287
vt 0.921326 0.581486
vn -0.2181 -0.7700 -0.5996
vn 0.0101 -0.9999 0.0014
vn 0.0032 -0.9999 0.0111
vn 0.0223 -0.6926 -0.7210
vn 0.2189 -0.8220 -0.5257
vn 0.0035 -0.9998 0.0180
vn 0.9885 -0.1459 0.0390
vn 0.7957 -0.1035 -0.5968
vn 0.9920 -0.1119 -0.0591
vn 0.8429 -0.1071 -0.5273
vn 0.9755 0.2163 0.0409
vn -0.3221 0.8179 -0.4766
vn -0.3477 -0.0258 -0.9373
vn -0.2898 0.9286 0.2318
vn 0.1566 0.9306 0.3309
vn 0.0546 0.9981 0.0282
vn 0.0221 0.9995 0.0235
vn -0.5387 -0.8313 0.1371
vn 0.7622 0.3808 0.5235
vn 0.6287 -0.0867 0.7728
vn -0.9313 0.0723 -0.3571
vn -0.9984 0.0458 -0.0329
vn -0.9811 0.0737 0.1789
vn -0.3811 0.0098 0.9245
vn -0.7722 0.0085 0.6353
vn -0.2729 -0.0098 -0.9620
vn -0.2448 0.3982 -0.8840
vn 0.2979 -0.1006 0.9493
vn 0.3631 -0.0808 -0.9282
vn 0.4135 -0.0688 -0.9079
vn -0.2054 -0.0218 0.9784
vn -0.0607 -0.0108 0.9981
vn 0.1838 0.9776 -0.1027
vn 0.2439 0.7503 -0.6145
usemtl None.009
s 1
f 33/32/63 34/33/64 35/34/65
f 34/33/64 33/32/63 36/35/66
f 37/36/67 34/33/64 36/35/66
f 35/34/65 34/33/64 38/37/68
f 39/38/69 34/33/69 37/36/69
f 32/39/70 39/38/71 37/36/72
f 39/38/73 32/39/73 40/40/73
f 41/41/74 42/42/74 43/43/74
f 43/43/75 36/35/66 33/32/63
f 41/41/76 46/44/76 44/45/76
f 45/46/77 40/40/77 44/45/77
f 40/40/78 42/42/78 44/45/78
f 42/42/79 41/41/79 44/45/79
f 33/32/80 35/34/80 47/47/80
f 40/40/81 45/46/81 39/38/81
f 45/46/82 34/33/82 39/38/82
f 43/43/83 33/32/83 41/41/83
f 33/32/84 47/47/84 41/41/84
f 47/47/85 46/44/85 41/41/85
f 35/34/86 44/45/86 46/44/86
f 47/47/87 35/34/87 46/44/87
f 36/35/88 43/43/88 48/48/88
f 43/43/89 42/42/89 48/48/89
f 38/37/90 34/33/90 45/46/90
f 48/48/91 37/36/67 36/35/66
f 37/36/72 48/48/92 32/39/70
f 44/45/93 35/34/93 38/37/93
f 45/46/94 44/45/94 38/37/94
f 42/42/95 40/40/95 32/39/95
f 48/48/96 42/42/96 32/39/96
o textured_reoriented.004_hull_4
v -0.060321 -0.105510 0.010113
v -0.039744 -0.128631 0.007494
v -0.061227 -0.105778 -0.002718
v -0.039832 -0.146757 0.000146
v -0.039686 -0.144682 0.013639
v -0.039557 -0.130232 -0.001307
v -0.063272 -0.108764 0.010454
v -0.053463 -0.126353 -0.001000
vt 1.000000 0.120482
vt 0.441525 0.981079
vt 0.964057 0.086011
vt 0.009797 0.980921
vt 0.052386 0.993137
vt 0.397003 1.000000
vt 0.913402 0.051539
vt 0.483473 0.430842
vn 0.7416 0.6675 -0.0663
vn 0.9485 -0.0322 -0.3151
vn 0.9999 -0.0085 0.0091
vn 0.9999 -0.0005 -0.0108
vn 0.5566 -0.0820 -0.8268
vn 0.7474 0.6563 -0.1035
vn 0.4630 0.3184 0.8272
vn -0.8361 -0.5408 0.0922
vn -0.6652 -0.4399 -0.6033
vn -0.8007 -0.5485 -0.2411
vn -0.9036 -0.4000 -0.1532
vn 0.0102 0.0950 0.9954
vn -0.7383 0.6734 0.0381
vn -0.0930 -0.1177 -0.9887
vn -0.0333 -0.0870 -0.9957
vn -0.9059 -0.3604 -0.2223
usemtl None.009
s 1
f 49/49/97 50/50/97 51/51/97
f 52/52/98 50/50/99 53/53/100
f 50/50/99 52/52/98 54/54/101
f 51/51/102 50/50/102 54/54/102
f 49/49/103 53/53/103 50/50/103
f 52/52/104 53/53/104 55/55/104
f 56/56/105 52/52/106 55/55/107
f 49/49/108 55/55/108 53/53/108
f 55/55/109 49/49/109 51/51/109
f 52/52/106 56/56/105 51/51/110
f 54/54/101 52/52/98 51/51/111
f 55/55/107 51/51/112 56/56/105
o textured_reoriented.004_hull_5
v -0.058707 -0.107212 0.030374
v -0.039560 -0.129900 0.027586
v -0.058466 -0.106453 0.019133
v -0.039507 -0.133175 0.014194
v -0.062121 -0.110170 0.030235
v -0.039588 -0.146669 0.026011
v -0.062965 -0.106713 0.018183
v -0.042015 -0.145326 0.012894
vt 0.973740 0.163878
vt 0.959346 0.169583
vt 0.402227 0.999984
vt 0.300267 0.999069
vt 0.947530 0.022348
vt 0.004326 1.004879
vt 0.886754 0.062732
vt 0.041425 0.930276
vn 0.7665 0.6395 0.0596
vn 0.1803 0.3010 -0.9364
vn 0.7229 0.2136 -0.6571
vn 0.7536 0.2003 0.6261
vn 0.9623 -0.1165 0.2458
vn -0.8808 -0.4679 -0.0726
vn 0.8200 -0.1091 -0.5618
vn -0.0398 0.1144 -0.9926
vn 0.0351 -0.0935 0.9950
vn -0.8413 -0.5311 0.1013
vn -0.0713 0.9953 0.0657
vn -0.6393 0.7261 0.2530
vn 0.0378 -0.0904 0.9952
vn 0.7949 0.5901 -0.1412
usemtl None.009
s 1
f 59/57/113 57/58/113 58/59/113
f 59/57/114 60/60/114 63/61/114
f 60/60/115 58/59/116 62/62/117
f 61/63/118 63/61/118 64/64/118
f 62/62/117 64/64/119 60/60/115
f 63/61/120 60/60/115 64/64/119
f 61/63/121 62/62/117 58/59/116
f 62/62/122 61/63/122 64/64/122
f 59/57/123 63/61/123 57/58/123
f 63/61/124 61/63/124 57/58/124
f 61/63/125 58/59/125 57/58/125
f 60/60/115 59/57/126 58/59/116
o textured_reoriented.004_hull_6
v -0.039256 -0.130243 0.027233
v -0.015876 -0.154653 0.025768
v -0.015873 -0.143097 0.024835
v -0.016018 -0.166242 0.000030
v -0.015875 -0.143595 -0.000451
v -0.015910 -0.165247 0.023111
v -0.039216 -0.129670 -0.001440
v -0.024338 -0.162229 0.022827
v -0.039524 -0.147005 0.026018
v -0.031778 -0.156460 0.002756
v -0.039480 -0.146339 -0.000749
vt 0.963603 0.978871
vt 0.309990 0.946244
vt 0.615930 0.908010
vt 0.009362 0.068431
vt 0.609547 0.050010
vt 0.021257 0.842441
vt 0.270460 0.125095
vt 0.534774 0.035692
vt 0.973627 0.041053
vt 0.524389 0.923298
vt 0.125788 0.812822
vn 0.1449 0.0796 0.9862
vn 0.9695 0.0195 0.2444
vn 0.7306 0.2663 0.6287
vn 0.9381 -0.0133 -0.3462
vn 0.7005 0.3750 -0.6071
vn 1.0000 -0.0036 -0.0027
vn -0.4785 -0.5896 -0.6508
vn 0.4831 0.8754 0.0182
vn -0.0682 -0.2425 0.9677
vn -0.1563 -0.3495 0.9238
vn -0.9999 0.0159 -0.0012
vn -0.9999 0.0158 -0.0012
vn -0.6610 -0.0438 0.7491
vn -0.7929 -0.6091 -0.0164
vn -0.6070 -0.7947 -0.0034
vn -0.6397 -0.7684 0.0163
vn -0.7011 -0.7109 0.0555
vn -0.8917 -0.0186 0.4523
vn -0.3381 -0.9402 0.0421
vn -0.5325 -0.8452 -0.0455
vn -0.0128 -0.0721 0.9973
vn 0.4441 0.7116 -0.5445
vn -0.0019 -0.0414 -0.9991
usemtl None.009
s 1
f 65/65/127 66/66/128 67/67/129
f 68/68/130 69/69/131 70/70/132
f 70/70/132 69/69/131 67/67/129
f 70/70/132 67/67/129 66/66/128
f 74/71/133 75/72/133 68/68/133
f 67/67/134 71/73/134 65/65/134
f 66/66/135 73/74/135 70/70/135
f 73/74/136 72/75/136 70/70/136
f 71/73/137 75/72/138 73/74/139
f 75/72/140 74/71/140 73/74/140
f 74/71/141 72/75/142 73/74/143
f 71/73/137 73/74/139 65/65/144
f 68/68/145 70/70/145 72/75/145
f 74/71/141 68/68/146 72/75/142
f 73/74/139 66/66/147 65/65/144
f 67/67/129 69/69/131 71/73/148
f 69/69/131 68/68/130 71/73/148
f 68/68/149 75/72/149 71/73/149
o textured_reoriented.004_hull_7
v 0.028869 -0.145156 0.018053
v 0.028846 -0.166202 0.020691
v 0.039767 -0.165076 0.021644
v 0.039778 -0.158733 0.000824
v 0.039748 -0.149283 0.020646
v 0.028926 -0.144879 0.006724
v 0.028900 -0.165214 0.002367
v 0.039736 -0.168045 0.006724
v 0.029477 -0.151087 0.023561
v 0.039753 -0.146552 0.007837
v 0.029184 -0.150537 0.000718
vt 0.874837 0.163993
vt 0.052832 0.399431
vt 0.832664 0.778431
vt 0.266724 1.000000
vt 0.107148 0.147834
vt 0.832670 0.123828
vt 0.266724 0.000000
vt 0.984180 0.729727
vt 0.324783 0.912747
vt 0.750579 0.975241
vt 0.013914 0.752734
vn 0.9475 0.0197 0.3190
vn 0.8417 -0.0263 -0.5393
vn 0.7573 0.1960 0.6229
vn -0.9998 0.0042 -0.0172
vn -0.8680 -0.4952 -0.0366
vn -0.9441 -0.3297 -0.0003
vn 0.8826 -0.2545 -0.3954
vn 0.0838 -0.9774 0.1943
vn -0.0667 -0.1834 0.9808
vn 0.9219 0.1948 -0.3350
vn 0.3059 0.9311 0.1987
vn -0.8920 0.2978 0.3400
vn 0.1501 0.9883 0.0250
vn -0.2324 -0.9712 -0.0530
vn 0.1956 -0.5255 -0.8280
vn -0.5755 0.3271 0.7496
vn 0.3675 0.4646 -0.8057
vn 0.1801 0.7198 -0.6704
vn -0.9984 0.0131 -0.0553
vn -0.0751 -0.1099 -0.9911
usemtl None.009
s 1
f 78/76/150 79/77/151 80/78/152
f 81/79/153 82/80/154 77/81/155
f 79/77/151 78/76/150 83/82/156
f 78/76/157 77/81/157 83/82/157
f 78/76/158 84/83/158 77/81/158
f 80/78/152 79/77/151 85/84/159
f 80/78/160 85/84/160 76/85/160
f 81/79/153 77/81/155 76/85/161
f 85/84/162 81/79/162 76/85/162
f 83/82/163 77/81/155 82/80/154
f 83/82/156 82/80/164 79/77/151
f 84/83/165 78/76/150 80/78/152
f 79/77/151 86/86/166 85/84/159
f 86/86/167 81/79/167 85/84/167
f 82/80/154 81/79/153 86/86/168
f 79/77/169 82/80/169 86/86/169
f 84/83/165 80/78/152 76/85/161
f 77/81/155 84/83/165 76/85/161
o textured_reoriented.004_hull_8
v -0.009731 -0.118890 0.005480
v -0.016203 -0.148262 0.025834
v -0.009495 -0.119805 0.021406
v -0.015778 -0.166570 0.000720
v -0.015871 -0.165980 0.022167
v 0.019449 -0.118671 0.021299
v 0.018599 -0.118799 0.003147
v -0.015871 -0.146415 -0.001000
v 0.028421 -0.158575 0.024905
v 0.028919 -0.161350 0.000031
v 0.016050 -0.171649 0.000546
v 0.019553 -0.157928 -0.002097
v 0.016503 -0.171881 0.023405
v 0.029178 -0.168477 0.009339
v 0.028923 -0.145387 0.019077
v 0.028896 -0.146720 0.001301
v -0.004028 -0.123770 0.001575
vt 0.989346 0.141152
vt 0.463785 0.037267
vt 0.977867 0.151587
vt 0.105742 0.005274
vt 0.106896 0.000000
vt 0.996244 0.787446
vt 0.988688 0.757098
vt 0.475817 0.000000
vt 0.194200 0.999911
vt 0.000000 0.712618
vt 0.285803 0.787132
vt 0.005708 0.721951
vt 0.073475 0.999911
vt 0.252692 0.988911
vt 0.495201 1.000000
vt 0.436316 1.000000
vt 0.902815 0.264388
vn -0.9720 0.2334 0.0278
vn -0.9999 -0.0102 -0.0095
vn -0.9998 -0.0180 -0.0038
vn -0.9999 -0.0120 -0.0082
vn -0.0038 1.0000 -0.0069
vn -0.9999 -0.0057 -0.0128
vn -0.0389 0.9976 0.0579
vn 0.1385 -0.2213 -0.9653
vn 0.2441 -0.9696 -0.0147
vn 0.6473 -0.6285 0.4313
vn -0.0024 0.1543 0.9880
vn 0.7798 0.2280 0.5831
vn 0.9922 0.1235 -0.0147
vn 0.9415 0.3361 -0.0266
vn 0.9868 0.1622 -0.0006
vn 0.9983 -0.0129 0.0567
vn 1.0000 0.0017 0.0096
vn -0.0585 -0.0851 -0.9947
vn -0.0342 -0.1806 -0.9830
vn 0.9362 0.3483 -0.0463
vn -0.9762 0.2171 0.0029
vn -0.0691 0.5728 -0.8168
vn -0.3600 0.2891 -0.8870
vn -0.1802 -0.9833 0.0263
vn -0.1576 -0.9875 -0.0069
vn 0.2499 0.0841 -0.9646
vn 0.1223 0.1353 -0.9832
vn 0.0710 0.1336 -0.9885
vn 0.1917 0.1350 -0.9721
vn 0.0437 0.0997 0.9941
vn 0.5171 -0.6726 -0.5294
vn 0.9997 0.0037 -0.0249
vn -0.0744 -0.2035 0.9762
vn -0.0043 -0.1082 0.9941
vn 0.0394 0.1337 -0.9902
vn 0.0051 0.1104 -0.9939
usemtl None.009
s 1
f 87/87/170 88/88/170 89/89/170
f 90/90/171 91/91/172 88/88/173
f 87/87/174 92/92/174 93/93/174
f 90/90/171 88/88/173 94/94/175
f 92/92/176 87/87/176 89/89/176
f 96/95/177 97/96/177 98/97/177
f 99/98/178 97/96/178 100/99/178
f 95/100/179 99/98/179 100/99/179
f 89/89/180 88/88/180 92/92/180
f 92/92/181 95/100/181 101/101/181
f 102/102/182 92/92/183 101/101/184
f 95/100/185 100/99/186 101/101/184
f 90/90/187 94/94/187 98/97/187
f 97/96/188 90/90/188 98/97/188
f 92/92/189 102/102/189 93/93/189
f 94/94/190 88/88/190 87/87/190
f 93/93/191 103/103/191 87/87/191
f 103/103/192 94/94/192 87/87/192
f 99/98/193 91/91/193 90/90/193
f 97/96/194 99/98/194 90/90/194
f 96/95/195 98/97/195 102/102/195
f 101/101/184 100/99/186 102/102/182
f 98/97/196 93/93/197 102/102/198
f 95/100/199 92/92/199 88/88/199
f 97/96/200 96/95/200 100/99/200
f 96/95/201 102/102/182 100/99/186
f 88/88/202 91/91/202 99/98/202
f 95/100/203 88/88/203 99/98/203
f 103/103/204 93/93/197 98/97/196
f 94/94/205 103/103/205 98/97/205
o textured_reoriented.004_hull_9
v 0.049815 -0.143758 0.020391
v 0.039635 -0.148111 0.004696
v 0.039666 -0.149070 0.020533
v 0.039601 -0.166554 0.003793
v 0.039632 -0.165738 0.021260
v 0.049507 -0.159316 0.028422
v 0.060845 -0.155690 0.027830
v 0.062620 -0.168469 0.024741
v 0.065307 -0.146660 0.020902
v 0.064676 -0.144752 0.004383
v 0.049521 -0.143847 0.005695
v 0.047846 -0.171934 0.004307
v 0.058786 -0.174223 0.014959
v 0.045398 -0.170915 0.020401
v 0.050102 -0.157103 -0.003799
v 0.063798 -0.170656 0.002432
v 0.063994 -0.158204 -0.002233
vt 0.936571 0.738043
vt 0.787274 0.292668
vt 0.778939 0.741322
vt 0.269302 0.249735
vt 0.301419 0.760822
vt 0.475777 1.000000
vt 0.590148 1.000000
vt 0.189196 0.891439
vt 0.861072 0.779847
vt 0.967265 0.283286
vt 0.879551 0.268587
vt 0.547533 0.028923
vt 0.000000 0.583247
vt 0.139481 0.196761
vt 0.496936 0.046527
vt 0.123228 0.750342
vt 0.086954 0.247620
vn -0.4624 0.8850 0.0545
vn -0.9330 0.2322 -0.2750
vn -0.8682 0.4952 0.0317
vn -0.9467 -0.1153 -0.3008
vn -0.9213 -0.3884 0.0199
vn -0.1003 0.4579 0.8833
vn 0.8470 -0.0108 0.5314
vn -0.2237 0.4505 0.8643
vn -0.3963 0.9181 0.0024
vn 0.0590 0.9982 -0.0073
vn -0.0357 0.5809 -0.8132
vn 0.7366 -0.6682 0.1044
vn 0.9918 -0.1111 0.0633
vn 0.9987 -0.0302 -0.0416
vn 0.9987 -0.0311 -0.0411
vn -0.2976 -0.4694 0.8313
vn -0.6020 0.0360 0.7977
vn -0.0657 -0.4709 -0.8797
vn -0.2323 -0.4391 -0.8679
vn -0.1643 0.5696 -0.8053
vn -0.6088 0.0399 -0.7923
vn -0.5449 -0.8379 -0.0299
vn -0.2295 -0.9729 0.0267
vn 0.0473 -0.9655 -0.2560
vn 0.1348 0.4318 -0.8919
vn 0.0774 -0.3508 -0.9332
vn 0.0821 0.5808 0.8099
vn 0.1797 0.9780 0.1061
vn -0.0059 -0.8609 0.5087
vn 0.1201 -0.2174 0.9687
vn -0.1355 -0.5306 0.8367
vn -0.6647 -0.7462 0.0360
usemtl None.009
s 1
f 104/104/206 105/105/207 106/106/208
f 105/105/207 107/107/209 108/108/210
f 109/109/211 110/110/211 104/104/211
f 110/110/212 111/111/212 112/112/212
f 105/105/207 108/108/210 106/106/208
f 109/109/213 104/104/213 106/106/213
f 114/113/214 105/105/214 104/104/214
f 113/114/215 114/113/215 104/104/215
f 114/113/216 113/114/216 118/115/216
f 111/111/217 116/116/217 119/117/217
f 112/112/218 111/111/218 119/117/218
f 113/114/219 112/112/219 120/118/219
f 112/112/220 119/117/220 120/118/220
f 108/108/221 117/119/221 109/109/221
f 106/106/222 108/108/222 109/109/222
f 119/117/223 115/120/223 118/115/223
f 115/120/224 107/107/224 118/115/224
f 114/113/225 118/115/225 105/105/225
f 118/115/226 107/107/209 105/105/207
f 117/119/227 107/107/227 115/120/227
f 116/116/228 117/119/228 115/120/228
f 119/117/229 116/116/229 115/120/229
f 118/115/230 113/114/230 120/118/230
f 119/117/231 118/115/231 120/118/231
f 104/104/232 110/110/232 112/112/232
f 113/114/233 104/104/233 112/112/233
f 117/119/234 116/116/234 111/111/234
f 110/110/235 109/109/235 111/111/235
f 109/109/236 117/119/236 111/111/236
f 107/107/209 117/119/237 108/108/210
