# Blender v2.82 (sub 6) OBJ File: ''
# www.blender.org
mtllib collision_vhacd.mtl
o textured_reoriented.002_hull_1
v -0.002832 -0.006084 -0.001772
v -0.003683 0.006701 0.044298
v 0.000580 0.008406 0.043444
v -0.011358 0.028887 0.012738
v 0.015938 0.015236 0.010175
v -0.025865 0.003296 0.022967
v 0.005704 -0.024006 0.014442
v 0.014230 0.011821 0.033201
v -0.013918 0.015236 -0.000918
v -0.007095 -0.012910 0.035759
v -0.019889 -0.008644 0.009320
v -0.009655 0.028032 0.027234
v 0.011671 -0.006084 0.033201
v 0.015086 -0.004379 0.007616
v 0.008259 0.019502 0.002495
v -0.019889 0.010971 0.036614
v 0.007407 0.026327 0.018704
v -0.022449 0.018646 0.012738
v -0.013918 -0.012910 0.030647
v 0.007407 -0.004379 -0.001772
v 0.000580 -0.023150 0.008466
v -0.017329 -0.000109 0.040031
v -0.000272 0.020357 0.036614
v -0.019037 -0.002674 0.003349
v -0.025009 0.015236 0.024666
v -0.008803 0.015236 0.041735
v 0.016794 0.002446 0.022962
v 0.001436 -0.011205 0.036614
v -0.001980 0.029737 0.011879
v 0.009111 -0.019735 0.009320
v -0.024153 0.010116 0.010175
v -0.019889 -0.010349 0.021254
vt 0.206464 0.703690
vt 0.444653 0.907380
vt 0.254117 0.499805
vt 0.666636 0.759127
vt 0.603092 0.981463
vt 0.333476 0.759127
vt 0.730179 0.259323
vt 0.936550 0.444454
vt 0.809557 0.092620
vt 0.984184 0.314956
vt 0.730179 0.018537
vt 0.793629 0.314956
vt 0.000000 0.351943
vt 0.206464 0.814652
vt 0.333476 0.000000
vt 0.365201 0.000000
vt 0.365201 0.203777
vt 0.015928 0.222227
vt 0.571367 1.000000
vt 0.650820 0.833210
vt 0.508010 0.536987
vt 0.825466 0.833210
vt 0.968275 0.629607
vt 0.396926 0.111157
vt 0.285842 0.240764
vt 0.730179 0.573866
vt 0.730179 0.944367
vt 0.492194 0.536879
vt 0.238189 0.833210
vt 1.000000 0.296310
vt 0.079471 0.240764
vt 0.634911 0.259323
vn -0.7923 -0.4837 0.3718
vn 0.6118 -0.0874 0.7862
vn 0.8342 0.5332 0.1410
vn 0.6562 0.7072 -0.2633
vn -0.5799 0.6280 -0.5190
vn -0.2454 -0.9124 0.3276
vn -0.0061 0.0368 -0.9993
vn 0.7731 0.0489 -0.6324
vn 0.1177 0.1706 -0.9783
vn 0.7298 0.0949 -0.6770
vn -0.3654 -0.9128 0.1826
vn 0.0833 -0.5003 -0.8618
vn -0.0960 -0.3833 0.9186
vn -0.8977 -0.0734 0.4344
vn -0.4805 -0.5982 0.6413
vn 0.4533 0.4664 0.7596
vn 0.5280 0.7116 0.4636
vn 0.2926 0.8625 0.4130
vn -0.3237 -0.1308 -0.9371
vn -0.3549 -0.5321 -0.7687
vn -0.4514 -0.5980 -0.6623
vn -0.6474 0.7526 0.1204
vn -0.9179 0.0094 0.3967
vn -0.6064 0.6303 0.4848
vn -0.6770 0.7332 0.0643
vn 0.0612 0.3205 0.9453
vn -0.5122 0.6289 0.5850
vn -0.3343 0.0814 0.9390
vn -0.4643 0.1613 0.8709
vn 0.2079 0.4965 0.8428
vn -0.0510 0.7474 0.6625
vn 0.9819 0.1627 0.0970
vn 0.9262 -0.1324 0.3531
vn 0.9948 -0.0305 -0.0971
vn 0.3019 -0.3018 0.9043
vn -0.0125 -0.3973 0.9176
vn 0.1184 -0.8499 0.5135
vn 0.4271 -0.2807 0.8595
vn 0.5151 -0.6957 0.5008
vn -0.1278 0.7133 -0.6891
vn -0.0838 0.9941 0.0685
vn -0.0140 0.6681 -0.7440
vn 0.1986 0.9583 0.2057
vn 0.5153 0.7992 -0.3094
vn 0.8623 -0.4739 0.1784
vn 0.7256 -0.3482 -0.5935
vn 0.3717 -0.8195 -0.4361
vn 0.2944 -0.5379 -0.7899
vn 0.9103 -0.3937 0.1275
vn 0.9326 -0.3568 0.0549
vn -0.9498 -0.2051 -0.2365
vn -0.7653 0.3206 -0.5581
vn -0.7464 0.0554 -0.6632
vn -0.9246 -0.1952 -0.3271
vn -0.9926 0.0837 -0.0882
vn -0.9621 0.2341 -0.1396
vn -0.9171 -0.3946 -0.0564
vn -0.5775 -0.8082 -0.1155
vn -0.4934 -0.8663 0.0774
vn -0.8449 -0.4128 0.3403
usemtl None
s off
f 19/1/1 22/2/1 32/3/1
f 8/4/2 3/5/2 13/6/2
f 8/4/3 5/7/3 17/8/3
f 5/7/4 15/9/4 17/8/4
f 4/10/5 9/11/5 18/12/5
f 7/13/6 10/14/6 19/1/6
f 1/15/7 9/11/7 20/16/7
f 5/7/8 14/17/8 20/16/8
f 9/11/9 15/9/9 20/16/9
f 15/9/10 5/7/10 20/16/10
f 7/13/11 19/1/11 21/18/11
f 1/15/12 20/16/12 21/18/12
f 10/14/13 2/19/13 22/2/13
f 16/20/14 6/21/14 22/2/14
f 19/1/15 10/14/15 22/2/15
f 3/5/16 8/4/16 23/22/16
f 8/4/17 17/8/17 23/22/17
f 17/8/18 12/23/18 23/22/18
f 9/11/19 1/15/19 24/24/19
f 1/15/20 21/18/20 24/24/20
f 21/18/21 11/25/21 24/24/21
f 12/23/22 4/10/22 25/26/22
f 6/21/23 16/20/23 25/26/23
f 16/20/24 12/23/24 25/26/24
f 4/10/25 18/12/25 25/26/25
f 2/19/26 3/5/26 26/27/26
f 12/23/27 16/20/27 26/27/27
f 22/2/28 2/19/28 26/27/28
f 16/20/29 22/2/29 26/27/29
f 3/5/30 23/22/30 26/27/30
f 23/22/31 12/23/31 26/27/31
f 5/7/32 8/4/32 27/28/32
f 8/4/33 13/6/33 27/28/33
f 14/17/34 5/7/34 27/28/34
f 3/5/35 2/19/35 28/29/35
f 2/19/36 10/14/36 28/29/36
f 10/14/37 7/13/37 28/29/37
f 13/6/38 3/5/38 28/29/38
f 7/13/39 13/6/39 28/29/39
f 9/11/40 4/10/40 29/30/40
f 4/10/41 12/23/41 29/30/41
f 15/9/42 9/11/42 29/30/42
f 12/23/43 17/8/43 29/30/43
f 17/8/44 15/9/44 29/30/44
f 13/6/45 7/13/45 30/31/45
f 20/16/46 14/17/46 30/31/46
f 7/13/47 21/18/47 30/31/47
f 21/18/48 20/16/48 30/31/48
f 27/28/49 13/6/49 30/31/49
f 14/17/50 27/28/50 30/31/50
f 11/25/51 6/21/51 31/32/51
f 18/12/52 9/11/52 31/32/52
f 9/11/53 24/24/53 31/32/53
f 24/24/54 11/25/54 31/32/54
f 6/21/55 25/26/55 31/32/55
f 25/26/56 18/12/56 31/32/56
f 6/21/57 11/25/57 32/3/57
f 11/25/58 21/18/58 32/3/58
f 21/18/59 19/1/59 32/3/59
f 22/2/60 6/21/60 32/3/60
