# Blender v2.82 (sub 6) OBJ File: ''
# www.blender.org
mtllib collision_vhacd.mtl
o textured_reoriented.002_hull_1
v 0.011584 -0.038458 0.047024
v -0.006901 -0.018584 0.027144
v -0.006901 -0.018122 0.027144
v -0.019382 -0.018122 0.060888
v -0.015684 -0.047237 0.041016
v 0.018057 -0.018119 0.052101
v -0.003664 -0.041689 0.062270
v 0.003727 -0.045854 0.036855
v 0.015282 -0.018584 0.034080
v 0.002340 -0.018119 0.067354
v -0.021692 -0.018122 0.039630
v -0.019382 -0.042616 0.052105
v -0.004129 -0.052324 0.049791
v 0.006037 -0.042154 0.057647
v -0.012913 -0.040765 0.033622
v -0.012447 -0.040303 0.061346
v 0.000952 -0.034299 0.030847
v -0.008288 -0.018584 0.067820
v -0.021231 -0.037992 0.045177
v -0.023079 -0.018584 0.052567
v 0.008351 -0.044927 0.043791
v 0.007886 -0.018119 0.028537
v -0.006901 -0.048162 0.036393
v 0.010200 -0.019046 0.063197
v -0.015223 -0.018584 0.030847
v -0.017998 -0.039382 0.037317
v 0.018518 -0.018584 0.041478
v -0.010598 -0.047703 0.056261
v -0.006901 -0.042613 0.032698
v 0.007886 -0.044465 0.052101
v 0.001878 -0.037996 0.062270
v -0.007366 -0.052324 0.046562
vt 0.455562 0.556766
vt 0.300046 0.715828
vt 0.377744 0.477382
vt 0.088877 0.829580
vt 0.611078 0.988544
vt 0.033344 0.306962
vt 0.466740 0.863556
vt 0.699954 0.749902
vt 0.088877 0.613654
vt 0.255595 0.840840
vt 0.355579 1.000000
vt 0.177777 0.341036
vt 0.044426 0.443333
vt 0.000000 0.625012
vt 0.644421 0.238740
vt 0.922206 0.170518
vt 0.755583 0.409259
vt 0.388922 0.000000
vt 0.388922 0.000000
vt 0.744405 0.034246
vt 0.988917 0.613556
vt 0.577710 0.091036
vt 0.244393 0.159259
vt 0.388922 0.227382
vt 0.800034 0.886346
vt 0.188860 0.091036
vt 0.122148 0.250098
vt 0.833305 0.488740
vt 1.000000 0.352395
vt 0.388922 0.136542
vt 0.744405 0.613556
vt 0.599971 0.863556
vn -0.3184 -0.8926 0.3192
vn -0.0001 1.0000 0.0000
vn 0.2603 -0.7396 0.6206
vn -0.7523 -0.2224 0.6202
vn -0.0378 0.9912 0.1266
vn 0.0524 -0.2233 0.9733
vn -0.5285 -0.1480 0.8359
vn -0.1412 -0.2579 0.9558
vn -0.8713 -0.4825 -0.0895
vn -0.1632 0.9864 0.0177
vn -0.9010 -0.1465 0.4084
vn -0.9927 -0.0533 -0.1083
vn -0.9755 -0.1531 0.1582
vn 0.7912 -0.3837 -0.4762
vn 0.4386 -0.8816 -0.1746
vn 0.0938 0.0000 -0.9956
vn 0.5566 -0.3141 -0.7691
vn 0.0000 1.0000 0.0000
vn -0.0002 1.0000 -0.0002
vn 0.0979 -0.1816 -0.9785
vn 0.4659 -0.3176 -0.8259
vn -0.4217 -0.5981 -0.6815
vn 0.2429 0.9372 0.2503
vn 0.7957 -0.2732 0.5406
vn -0.4065 0.0000 -0.9136
vn -0.1155 0.9838 -0.1368
vn -0.4016 -0.1548 -0.9026
vn -0.6084 -0.1606 -0.7772
vn -0.5976 -0.4789 -0.6431
vn -0.9253 -0.1217 -0.3591
vn -0.8727 -0.3933 -0.2894
vn -0.8048 -0.0758 -0.5887
vn 0.9474 -0.3152 0.0549
vn 0.9129 -0.3679 -0.1768
vn 0.8539 -0.3624 -0.3735
vn 0.0917 0.9950 -0.0396
vn 0.0931 0.9948 -0.0407
vn 0.1010 -0.7591 0.6431
vn -0.1758 -0.5870 0.7903
vn -0.5956 -0.5507 0.5848
vn -0.2139 -0.2200 -0.9518
vn 0.0088 -0.2252 -0.9743
vn 0.2223 -0.4072 -0.8859
vn 0.1547 -0.5476 -0.8223
vn -0.2858 -0.5311 -0.7976
vn 0.9043 -0.3491 0.2456
vn 0.8472 -0.3271 0.4187
vn 0.4203 -0.7793 0.4648
vn 0.8764 -0.4757 0.0755
vn 0.5354 -0.8411 0.0767
vn 0.1653 -0.2480 0.9546
vn 0.3469 -0.5205 0.7802
vn 0.4331 -0.2328 0.8708
vn 0.5689 -0.2875 0.7705
vn -0.5826 -0.8007 0.1394
vn 0.2844 -0.9153 -0.2851
vn -0.2896 -0.8811 -0.3739
vn 0.2128 -0.9077 -0.3618
vn -0.5595 -0.8051 0.1971
usemtl None
s off
f 13/1/1 28/2/1 32/3/1
f 4/4/2 10/5/2 11/6/2
f 7/7/3 13/1/3 14/8/3
f 4/4/4 12/9/4 16/10/4
f 10/5/5 4/4/5 18/11/5
f 7/7/6 10/5/6 18/11/6
f 4/4/7 16/10/7 18/11/7
f 16/10/8 7/7/8 18/11/8
f 5/12/9 12/9/9 19/13/9
f 4/4/10 11/6/10 20/14/10
f 12/9/11 4/4/11 20/14/11
f 11/6/12 19/13/12 20/14/12
f 19/13/13 12/9/13 20/14/13
f 8/15/14 9/16/14 21/17/14
f 13/1/15 8/15/15 21/17/15
f 2/18/16 3/19/16 22/20/16
f 9/16/17 8/15/17 22/20/17
f 10/5/18 6/21/18 22/20/18
f 3/19/19 11/6/19 22/20/19
f 11/6/2 10/5/2 22/20/2
f 17/22/20 2/18/20 22/20/20
f 8/15/21 17/22/21 22/20/21
f 5/12/22 15/23/22 23/24/22
f 6/21/23 10/5/23 24/25/23
f 14/8/24 6/21/24 24/25/24
f 3/19/25 2/18/25 25/26/25
f 11/6/26 3/19/26 25/26/26
f 2/18/27 15/23/27 25/26/27
f 25/26/28 15/23/28 26/27/28
f 15/23/29 5/12/29 26/27/29
f 19/13/30 11/6/30 26/27/30
f 5/12/31 19/13/31 26/27/31
f 11/6/32 25/26/32 26/27/32
f 6/21/33 1/28/33 27/29/33
f 1/28/34 21/17/34 27/29/34
f 21/17/35 9/16/35 27/29/35
f 22/20/36 6/21/36 27/29/36
f 9/16/37 22/20/37 27/29/37
f 13/1/38 7/7/38 28/2/38
f 7/7/39 16/10/39 28/2/39
f 16/10/40 12/9/40 28/2/40
f 15/23/41 2/18/41 29/30/41
f 2/18/42 17/22/42 29/30/42
f 17/22/43 8/15/43 29/30/43
f 8/15/44 23/24/44 29/30/44
f 23/24/45 15/23/45 29/30/45
f 1/28/46 6/21/46 30/31/46
f 6/21/47 14/8/47 30/31/47
f 14/8/48 13/1/48 30/31/48
f 21/17/49 1/28/49 30/31/49
f 13/1/50 21/17/50 30/31/50
f 10/5/51 7/7/51 31/32/51
f 7/7/52 14/8/52 31/32/52
f 24/25/53 10/5/53 31/32/53
f 14/8/54 24/25/54 31/32/54
f 12/9/55 5/12/55 32/3/55
f 8/15/56 13/1/56 32/3/56
f 5/12/57 23/24/57 32/3/57
f 23/24/58 8/15/58 32/3/58
f 28/2/59 12/9/59 32/3/59
o textured_reoriented.002_hull_2
v 0.026842 0.032724 0.043795
v -0.034178 0.011471 0.046564
v -0.033712 0.008699 0.045179
v 0.004186 -0.001474 0.076136
v 0.008345 -0.018119 0.028540
v -0.006903 0.049829 0.036853
v -0.005053 0.017475 0.013738
v -0.005978 0.035041 0.073833
v -0.018457 -0.018112 0.062265
v 0.028685 0.008699 0.062272
v 0.024991 0.017014 0.023455
v 0.018981 -0.018119 0.049785
v -0.018917 -0.018112 0.034544
v -0.025852 0.023019 0.070125
v -0.025393 0.018858 0.023455
v 0.014821 0.035035 0.069207
v -0.025393 0.038735 0.051642
v 0.002335 0.051219 0.053486
v 0.012046 0.041046 0.028534
v 0.030536 0.003155 0.036860
v -0.007828 0.012860 0.080302
v 0.013896 0.018397 0.077527
v 0.008345 -0.018119 0.065040
v -0.013372 0.002226 0.017904
v 0.015747 0.004077 0.018364
v -0.013832 0.037813 0.024840
v -0.026777 0.004077 0.068282
v 0.008345 0.026251 0.016520
v 0.012046 0.048908 0.043795
v -0.026318 0.035035 0.038244
v 0.030076 0.019318 0.059037
v -0.015682 0.043357 0.060421
vt 0.766679 0.902815
vt 1.000000 0.597140
vt 0.886613 0.701325
vt 0.000101 0.729028
vt 0.386772 0.472342
vt 0.000101 0.312571
vt 0.426750 0.493149
vt 0.533286 0.145980
vt 0.593297 0.847110
vt 0.819954 0.569437
vt 0.766593 0.833318
vt 0.733263 0.451550
vt 0.506692 0.145980
vt 0.853284 0.222282
vt 0.306816 0.347365
vt 0.386772 0.729133
vt 0.000000 0.541539
vt 0.000000 0.222372
vt 0.240056 0.937414
vt 0.446782 1.000000
vt 0.526638 0.958311
vt 0.000000 0.770717
vt 0.293418 0.062586
vt 0.513340 0.000000
vt 0.320113 0.069497
vt 0.806657 0.166787
vt 0.979953 0.347260
vt 0.320113 0.819422
vt 0.639909 0.041794
vt 0.966671 0.451550
vt 0.766593 0.368157
vt 0.539920 0.680533
vn -0.1238 0.8007 0.5861
vn -0.8730 -0.4875 0.0145
vn -0.9364 0.0176 -0.3504
vn -0.8433 -0.2845 -0.4560
vn -0.9424 0.2659 0.2027
vn 0.1451 0.7447 0.6514
vn 0.7429 0.4953 -0.4502
vn 0.9603 0.1715 -0.2199
vn 0.9044 -0.3984 0.1528
vn 0.7127 -0.6039 -0.3568
vn -0.2159 -0.4350 0.8742
vn -0.3418 0.2893 0.8941
vn 0.5649 -0.3290 0.7568
vn 0.1961 0.4298 0.8814
vn 0.1622 -0.1476 0.9757
vn 0.0524 0.2756 0.9599
vn -0.0850 -0.5673 0.8191
vn 0.5676 -0.3538 0.7434
vn 0.7148 -0.4907 0.4983
vn 0.0000 -1.0000 -0.0000
vn -0.0003 -1.0000 -0.0000
vn -0.1730 -0.5950 -0.7849
vn -0.4316 -0.0109 -0.9020
vn -0.7188 -0.3122 -0.6211
vn 0.7403 -0.2903 -0.6064
vn 0.6725 -0.4818 -0.5618
vn 0.0415 -0.4278 -0.9029
vn 0.0330 -0.2801 -0.9594
vn -0.3938 0.3036 -0.8676
vn 0.0137 0.7030 -0.7111
vn -0.9356 -0.2706 0.2267
vn -0.9006 -0.3898 0.1923
vn -0.9450 0.0143 0.3269
vn -0.3694 -0.3697 0.8525
vn -0.5154 -0.0580 0.8550
vn 0.5431 0.4433 -0.7132
vn 0.2103 -0.0111 -0.9776
vn 0.4131 0.0623 -0.9085
vn -0.1042 0.4415 -0.8912
vn 0.0332 0.6250 -0.7799
vn 0.7093 0.6484 0.2765
vn 0.0980 0.9857 -0.1368
vn 0.5385 0.7629 0.3577
vn 0.2064 0.8698 -0.4481
vn 0.6971 0.6373 -0.3283
vn -0.9343 0.2099 -0.2881
vn -0.6048 0.7774 -0.1729
vn -0.9505 0.3100 -0.0200
vn -0.6942 0.4636 -0.5506
vn -0.5761 0.7197 -0.3875
vn 0.7748 0.5471 0.3168
vn 0.9862 0.1428 -0.0836
vn 0.9904 -0.1010 0.0942
vn 0.7460 0.1027 0.6579
vn 0.7154 0.2803 0.6400
vn -0.4665 0.5600 0.6847
vn -0.4754 0.8775 0.0639
vn -0.6854 0.5630 0.4617
vn -0.3575 0.9260 0.1211
usemtl None
s off
f 40/33/60 50/34/60 64/35/60
f 41/36/61 35/37/61 45/38/61
f 35/37/62 34/39/62 47/40/62
f 45/38/63 35/37/63 47/40/63
f 34/39/64 46/41/64 49/42/64
f 40/33/65 48/43/65 50/34/65
f 33/44/66 43/45/66 51/46/66
f 43/45/67 33/44/67 52/47/67
f 42/48/68 44/49/68 52/47/68
f 44/49/69 37/50/69 52/47/69
f 41/36/70 36/51/70 53/52/70
f 40/33/71 46/41/71 53/52/71
f 36/51/72 42/48/72 54/53/72
f 48/43/73 40/33/73 54/53/73
f 53/52/74 36/51/74 54/53/74
f 40/33/75 53/52/75 54/53/75
f 36/51/76 41/36/76 55/54/76
f 42/48/77 36/51/77 55/54/77
f 44/49/78 42/48/78 55/54/78
f 37/50/79 44/49/79 55/54/79
f 45/38/80 37/50/80 55/54/80
f 41/36/80 45/38/80 55/54/80
f 37/50/81 45/38/81 56/55/81
f 47/40/82 39/56/82 56/55/82
f 45/38/83 47/40/83 56/55/83
f 43/45/84 52/47/84 57/57/84
f 52/47/85 37/50/85 57/57/85
f 37/50/86 56/55/86 57/57/86
f 56/55/87 39/56/87 57/57/87
f 39/56/88 47/40/88 58/58/88
f 38/59/89 51/46/89 58/58/89
f 34/39/90 35/37/90 59/60/90
f 35/37/91 41/36/91 59/60/91
f 46/41/92 34/39/92 59/60/92
f 41/36/93 53/52/93 59/60/93
f 53/52/94 46/41/94 59/60/94
f 51/46/95 43/45/95 60/61/95
f 57/57/96 39/56/96 60/61/96
f 43/45/97 57/57/97 60/61/97
f 39/56/98 58/58/98 60/61/98
f 58/58/99 51/46/99 60/61/99
f 48/43/100 33/44/100 61/62/100
f 38/59/101 50/34/101 61/62/101
f 50/34/102 48/43/102 61/62/102
f 51/46/103 38/59/103 61/62/103
f 33/44/104 51/46/104 61/62/104
f 47/40/105 34/39/105 62/63/105
f 49/42/106 38/59/106 62/63/106
f 34/39/107 49/42/107 62/63/107
f 58/58/108 47/40/108 62/63/108
f 38/59/109 58/58/109 62/63/109
f 33/44/110 48/43/110 63/64/110
f 52/47/111 33/44/111 63/64/111
f 42/48/112 52/47/112 63/64/112
f 54/53/113 42/48/113 63/64/113
f 48/43/114 54/53/114 63/64/114
f 46/41/115 40/33/115 64/35/115
f 38/59/116 49/42/116 64/35/116
f 49/42/117 46/41/117 64/35/117
f 50/34/118 38/59/118 64/35/118
